<?xml version="1.0" encoding="utf-8"?>
<!-- Generator: Adobe Illustrator 23.0.1, SVG Export Plug-In . SVG Version: 6.00 Build 0)  -->
<svg version="1.1" id="Layer_1" xmlns="http://www.w3.org/2000/svg" xmlns:xlink="http://www.w3.org/1999/xlink" x="0px" y="0px"
	 viewBox="0 0 900 300" style="enable-background:new 0 0 900 300;" xml:space="preserve">
<style type="text/css">
	.st0{fill:#3A6FB7;}
	.st1{font-family:'ErasITC-Bold';}
	.st2{font-size:108px;}
</style>
<text transform="matrix(1 0 0 1 381.7318 179.4967)" class="st0 st1 st2">QA-Ninja</text>
<g>
	<path class="st0" d="M318.93,148.71c0,8.03,0,16.07,0,24.1c0.25,21.84-9.54,39.41-25.86,52.72
		c-21.84,17.57-47.19,25.61-75.06,28.62c-24.1,2.51-47.19-0.5-69.79-8.03c-17.32-5.77-33.14-14.81-45.69-28.62
		c-10.79-11.8-17.07-25.86-17.32-41.92c-0.25-17.82-0.25-35.65,0-53.72c0-4.02,0.75-8.03,2.26-11.55
		c6.53-16.07,15.82-30.12,28.62-41.92c0.5-0.5,0.75-0.75,1.26-1c1-0.5,2.26-1,3.51-1.76c0.5,1.26,1.26,2.26,1.51,3.26
		c1.26,7.03,1.76,14.31,3.26,21.34c4.77,23.1,15.56,43.18,34.39,58.24c0.5,0.25,1,0.5,1.26,1c0.5,0.75,0.75,1.26,1,2.01
		c-1,0.25-2.01,1-2.76,0.75c-8.28-2.76-16.82-5.27-24.85-8.79c-12.8-5.52-24.6-12.55-34.39-22.84c-0.75-0.75-2.26-1.26-3.26-1.76
		c-0.25,1.26-0.75,2.51-0.75,3.77c-0.75,24.35,7.28,45.19,24.1,63.01c15.31,16.07,34.39,24.85,55.73,29.12
		c8.54,1.76,17.32,3.26,26.11,3.01c11.3-0.5,22.84-2.26,33.89-5.02c20.08-5.02,37.4-15.06,51.21-30.88
		c15.06-17.32,21.59-37.66,20.33-60.5c0-0.75-0.75-1.76-1.26-2.51c-0.75,0.5-2.01,1-2.51,1.76c-12.55,13.81-29.12,21.34-45.94,27.86
		c-4.27,1.76-8.54,2.76-13.05,3.77c-1,0.25-2.01-0.25-3.01-0.5c0.5-0.75,0.75-2.01,1.51-2.51c9.04-5.77,14.81-14.56,20.84-23.1
		c8.79-12.8,13.56-27.11,16.32-42.17c0.75-5.02,1.26-10.04,1.76-15.06c0.25-1.26,0.75-2.51,1.26-3.51c1.26,0.75,3.01,1,4.02,2.01
		c9.54,8.28,16.82,18.33,23.1,29.37c6.28,11.05,10.04,22.34,8.54,35.14C318.68,137.41,318.93,143.19,318.93,148.71z"/>
	<path class="st0" d="M222.53,87.46c0,21.34-0.25,42.68,0.25,64.01c0,4.02-1.51,5.52-4.77,5.52c-10.54,0.25-21.34,0.25-31.88,0
		c-3.51,0-5.27-2.01-5.27-5.52c0-1.76,0-3.77,0-5.52c0-39.41,0-78.82,0-118.24c0-1.76,0-3.77,0-5.52c0.5-5.02,2.51-7.28,7.53-7.28
		c8.79-0.25,17.57-0.25,26.36,0c5.77,0.25,7.78,2.76,7.78,9.79c0,19.08,0,38.41,0,57.49C222.28,83.69,222.28,85.7,222.53,87.46
		L222.53,87.46z"/>
	<path class="st0" d="M175.08,95.74c0,16.57,0,33.14,0,49.7c0,1.51,0,3.26,0,4.77c-0.5,3.77-1.51,4.52-4.52,2.51
		c-5.27-3.51-11.05-6.78-15.31-11.3c-18.58-19.33-28.62-42.68-29.87-69.54c0-0.25,0-0.5,0-0.75c-3.26-8.79,2.01-13.3,8.54-17.32
		c11.05-7.03,22.84-12.55,35.4-16.32c5.52-1.51,5.77-1.26,6.02,4.52C175.08,59.84,175.08,77.67,175.08,95.74z"/>
	<path class="st0" d="M279.51,65.87c0,16.07-3.77,32.13-10.79,47.19c-7.28,15.56-17.82,28.87-32.89,38.16
		c-5.77,3.51-6.78,3.01-6.78-3.51c0-25.86,0-51.71,0-77.57c0-9.54,0-19.08,0-28.87c0-4.77,0.5-5.27,5.02-4.02
		c15.06,4.02,28.87,10.79,41.42,20.08C278.26,59.34,281.02,61.35,279.51,65.87z"/>
	<path class="st0" d="M203.45,281.26c-37.91-1.51-68.53-14.31-93.13-41.42c-7.78-8.54-13.81-18.33-19.33-28.12
		c-0.5-0.75-0.25-2.01-0.25-3.01c0.75,0.75,1.51,1.26,2.26,2.01c15.82,21.84,37.66,34.14,62.76,41.17
		c18.83,5.27,38.16,7.53,57.74,6.28c25.86-2.01,50.46-8.28,72.3-22.84c9.54-6.28,18.07-14.06,24.6-23.6c0.75-1,2.01-1.76,3.26-2.76
		c-0.25,1.26-0.25,2.76-0.75,3.77c-4.27,7.03-8.28,14.56-13.3,20.84c-10.54,12.8-22.84,23.85-37.4,31.88
		c-12.55,6.78-25.61,11.55-39.66,13.81C215.5,280.25,208.47,280.75,203.45,281.26z"/>
	<path class="st0" d="M64.63,158c0.75,8.79-1.76,17.32-6.53,25.35c-3.77,6.28-5.77,6.53-10.54,1c-13.05-15.31-15.06-36.9-3.51-53.22
		c0.5-0.75,1.26-1.76,2.01-2.51c5.02-5.77,7.78-5.77,12.05,1C63.12,138.17,64.88,147.71,64.63,158z"/>
	<path class="st0" d="M367.88,156.74c-0.5,9.79-4.27,20.33-12.55,29.12c-3.51,3.51-5.02,3.77-7.28-0.5
		c-3.26-5.77-6.53-11.8-7.53-18.33c-2.26-11.8-0.75-23.35,4.52-34.39c0.75-1.51,1.51-3.01,2.26-4.27c4.02-5.52,6.02-5.77,10.54-0.75
		C364.87,135.4,367.63,144.69,367.88,156.74z"/>
	<path class="st0" d="M78.94,155.49c0,11.55,0,22.84,0,34.39c0,7.53-1.76,9.04-9.04,7.28c-3.51-0.75-7.03-2.51-10.29-3.77
		c-2.51-1-2.76-2.51-1.26-5.02c2.76-4.77,6.28-9.54,7.53-14.81c4.02-17.57,3.77-34.89-8.54-49.7c-2.01-2.51-2.01-4.52,1-5.52
		c5.52-2.01,11.05-3.77,16.57-5.27c3.01-0.75,4.27,1.51,4.27,4.27c0,5.77,0,11.8,0,17.57C78.94,141.68,78.94,148.71,78.94,155.49z"
		/>
	<path class="st0" d="M325.45,154.99c0-11.3,0-22.34,0-33.64c0-9.04,0.25-9.29,8.79-7.28c4.27,1,8.54,2.76,12.55,4.77
		c2.26,1,2.01,3.01,0.5,5.27c-14.31,19.33-14.81,43.68-1.26,64.01c1.76,2.76,1.76,4.27-1.26,5.52c-2.26,1-4.27,2.01-6.78,2.76
		c-10.79,3.51-12.55,2.01-12.55-9.29C325.45,176.32,325.45,165.53,325.45,154.99z"/>
	<path class="st0" d="M268.47,171.8c-0.5,7.53-3.51,12.3-7.78,15.82c-5.27,4.27-11.05,7.03-17.82,8.03
		c-4.52,0.75-8.54-0.75-12.05-3.26c-4.27-3.26-5.52-7.78-3.77-12.8c4.27-12.3,20.33-21.09,31.88-18.07
		C264.45,163.02,268.47,167.79,268.47,171.8z"/>
	<path class="st0" d="M149.98,160.76c12.05,1,22.59,6.78,27.36,19.08c1.76,4.77,0.75,9.79-3.01,12.3
		c-7.03,5.02-14.56,4.77-22.09,1.26c-7.78-3.77-14.81-8.79-15.82-18.33C135.67,166.53,141.19,160.76,149.98,160.76z"/>
</g>
</svg>
